<svg xmlns="http://www.w3.org/2000/svg" xmlns:xlink="http://www.w3.org/1999/xlink" xmlns:fi="http://pattern.flaticon.com/" x="0" y="0" width="200" height="200" viewBox="0 0 350 350"><rect x="0px" y="0px" width="100%" height="100%" opacity="0.5" fill="#fafafa"/><defs><g transform="matrix(0.1171875 0 0 0.1171875 79 200)" id="L1_6"><path d="m464.980469 0h-417.960938c-25.925781 0-47.019531 21.09375-47.019531 47.019531v242.511719c0 25.925781 21.09375 47.019531 47.019531 47.019531h155.703125l-4.695312 80.804688h-35.546875c-8.65625 0-15.671875 7.019531-15.671875 15.675781s7.015625 15.671875 15.671875 15.671875h187.039062c8.65625 0 15.671875-7.015625 15.671875-15.671875s-7.015625-15.675781-15.671875-15.675781h-35.546875l-4.695312-80.804688h155.703125c25.925781 0 47.019531-21.09375 47.019531-47.019531v-242.511719c0-25.925781-21.09375-47.019531-47.019531-47.019531zm-235.554688 417.355469 4.699219-80.800781h43.75l4.699219 80.800781zm251.226563-127.824219c0 8.640625-7.03125 15.671875-15.671875 15.671875h-417.960938c-8.640625 0-15.671875-7.03125-15.671875-15.671875v-242.511719c0-8.640625 7.03125-15.671875 15.671875-15.671875h417.960938c8.644531 0 15.671875 7.03125 15.671875 15.671875zm0 0"/><path d="m188.597656 87.703125c-6.628906-5.566406-16.515625-4.699219-22.082031 1.929687l-57.554687 68.566407c-4.890626 5.828125-4.890626 14.328125 0 20.152343l57.554687 68.570313c5.570313 6.632813 15.457031 7.492187 22.082031 1.925781 6.632813-5.5625 7.496094-15.449218 1.929688-22.078125l-49.097656-58.492187 49.097656-58.492188c5.5625-6.628906 4.699218-16.515625-1.929688-22.082031zm0 0"/><path d="m345.484375 89.632812c-5.566406-6.632812-15.453125-7.496093-22.082031-1.929687s-7.492188 15.453125-1.925782 22.082031l49.09375 58.492188-49.09375 58.492187c-5.566406 6.628907-4.703124 16.515625 1.925782 22.078125 6.632812 5.570313 16.519531 4.699219 22.082031-1.925781l57.554687-68.570313c4.890626-5.824218 4.890626-14.324218 0-20.152343zm0 0"/><path d="m288.941406 85.136719c-8.046875-3.191407-17.15625.75-20.34375 8.800781l-54.335937 137.132812c-3.1875 8.046876.75 17.15625 8.796875 20.347657 8.046875 3.1875 17.15625-.75 20.347656-8.800781l54.332031-137.136719c3.1875-8.046875-.75-17.15625-8.796875-20.34375zm0 0"/></g><g transform="matrix(0.1171875 0 0 0.1171875 247 105.9999997949219)" id="L1_12"><path d="m255.25.015625c-92.269531-1.230469-170.097656 74.550781-171.203125 166.914063-.726563 60.859374 31.535156 117.671874 84.199219 148.265624 11.097656 6.449219 17.992187 18.460938 17.992187 31.347657v65.125c0 16.382812 13.328125 29.710937 29.710938 29.710937h74.15625c16.378906 0 29.707031-13.328125 29.707031-29.710937 0-6.324219 0-58.5625 0-65.125 0-12.863281 6.980469-24.925781 18.21875-31.476563 50.390625-29.378906 83.988281-83.96875 83.988281-146.074218 0-92.441407-74.171875-167.78125-166.769531-168.976563zm33.667969 410.46875h-71.785157v-29.714844h71.785157zm33.554687-122.109375c-20.695312 12.066406-33.554687 34.355469-33.554687 58.167969v3.332031h-71.785157v-3.332031c0-23.855469-12.785156-46.101563-33.367187-58.058594-43.050781-25.007813-69.421875-71.445313-68.828125-121.183594.898438-75.023437 64.398438-137.347656 139.910156-136.394531 75.144532.972656 136.277344 62.914062 136.277344 138.085938 0 48.949218-26.304688 94.695312-68.652344 119.382812zm0 0"/><path d="m170.007812 165.378906 33.890626-47.375c4.964843-6.9375 3.363281-16.589844-3.574219-21.550781-6.941407-4.964844-16.589844-3.363281-21.554688 3.574219l-40.316406 56.363281c-3.847656 5.375-3.847656 12.601563 0 17.976563l40.316406 56.359374c4.964844 6.9375 14.613281 8.539063 21.554688 3.578126 6.9375-4.964844 8.539062-14.613282 3.574219-21.554688zm0 0"/><path d="m305.730469 96.453125c-6.9375 4.964844-8.539063 14.613281-3.574219 21.550781l33.890625 47.375-33.890625 47.371094c-4.964844 6.941406-3.363281 16.589844 3.574219 21.554688 6.9375 4.960937 16.589843 3.359374 21.550781-3.578126l40.320312-56.359374c3.84375-5.375 3.84375-12.601563 0-17.976563l-40.320312-56.363281c-4.964844-6.9375-14.613281-8.539063-21.550781-3.574219zm0 0"/><path d="m277 94.382812c-8.082031-2.730468-16.847656 1.609376-19.574219 9.691407l-38.066406 112.722656c-2.726563 8.082031 1.613281 16.847656 9.695313 19.578125 8.078124 2.730469 16.847656-1.609375 19.574218-9.695312l38.066406-112.722657c2.726563-8.082031-1.613281-16.847656-9.695312-19.574219zm0 0"/><path d="m496.550781 144.609375h-33.347656c-8.53125 0-15.449219 6.917969-15.449219 15.449219s6.917969 15.445312 15.449219 15.445312h33.347656c8.53125 0 15.449219-6.914062 15.449219-15.445312s-6.917969-15.449219-15.449219-15.449219zm0 0"/><path d="m450.628906 71.863281 33.351563-28.164062c6.515625-5.507813 7.335937-15.253907 1.832031-21.769531-5.503906-6.519532-15.25-7.339844-21.765625-1.835938l-33.351563 28.164062c-6.515624 5.503907-7.339843 15.25-1.835937 21.769532 5.503906 6.519531 15.25 7.339844 21.769531 1.835937zm0 0"/><path d="m483.980469 276.417969-33.351563-28.164063c-6.515625-5.507812-16.261718-4.683594-21.769531 1.835938-5.503906 6.515625-4.679687 16.261718 1.835937 21.765625l33.351563 28.167969c6.515625 5.503906 16.265625 4.679687 21.769531-1.835938 5.5-6.519531 4.679688-16.265625-1.835937-21.769531zm0 0"/><path d="m64.242188 160.058594c0-8.53125-6.914063-15.449219-15.445313-15.449219h-33.351563c-8.527343 0-15.445312 6.917969-15.445312 15.449219s6.917969 15.445312 15.449219 15.445312h33.347656c8.53125 0 15.445313-6.914062 15.445313-15.445312zm0 0"/><path d="m61.371094 248.253906-33.351563 28.164063c-6.515625 5.503906-7.335937 15.25-1.832031 21.765625 5.503906 6.519531 15.25 7.339844 21.765625 1.835937l33.351563-28.164062c6.515624-5.503907 7.339843-15.25 1.835937-21.769531-5.503906-6.515626-15.25-7.335938-21.769531-1.832032zm0 0"/><path d="m28.019531 43.699219 33.351563 28.164062c6.515625 5.503907 16.265625 4.683594 21.769531-1.835937 5.503906-6.519532 4.679687-16.265625-1.835937-21.769532l-33.351563-28.164062c-6.515625-5.503906-16.261719-4.683594-21.769531 1.835938-5.5 6.515624-4.679688 16.261718 1.835937 21.769531zm0 0"/></g><g transform="matrix(0.11718722432851791 0 0 0.11718722432851791 75.99999997070313 23)" id="L1_15"><path d="m475.488281 148.21875c-26.800781-130.359375-165.683593-173.324219-283.585937-134.433594-91.878906 30.296875-149.375 114.054688-146.480469 213.382813.042969 1.5-.265625 2.980469-.898437 4.308593l-39.339844 68.785157c-13.40625 22.460937.558594 50.722656 26.285156 54.378906l13.203125 1.878906c11.628906 95.445313 18.042969 114.144531 33.726563 128.300781 9.871093 8.90625 28.824218 10.019532 56.339843 3.3125 17.921875-4.367187 36.703125-11.546874 53.546875-20.347656 2.453125 7.234375 5.292969 17.527344 7.71875 31.359375 1.304688 7.433594 7.761719 12.855469 15.3125 12.855469h207.035156c10.78125 0 18.304688-10.738281 14.597657-20.878906-11.40625-31.199219-24.847657-77.546875-24.105469-121.195313.328125-19.25 10.996094-31.691406 25.757812-48.910156 27.816407-32.441406 61.390626-73.066406 40.886719-172.796875zm-64.484375 152.5625c-16.089844 18.761719-32.726562 38.164062-33.242187 68.613281-.667969 39.214844 8.71875 79.667969 18.851562 111.519531h-172.53125c-6.511719-29.414062-14.472656-42.238281-15.464843-43.765624-4.652344-7.125-14.171876-9.183594-21.355469-4.617188-31.847657 20.253906-67.878907 28.746094-83.269531 28.925781-3.78125.042969-7.304688-1.957031-9.136719-5.265625-5.277344-9.511718-10.738281-32.511718-19.632813-105.980468-1.503906-12.429688-11.207031-22.339844-23.59375-24.101563l-15.78125-2.246094c-3.140625-.445312-6.3125-3.578125-3.761718-8.027343.28125-.488282 39.726562-69.4375 39.980468-69.9375 3.097656-6.035157 4.628906-12.828126 4.429688-19.636719-2.484375-85.253907 46.632812-157.070313 125.140625-182.957031 95.726562-31.574219 219.871093-3.285157 243.402343 111.171874 17.679688 85.992188-8.609374 116.652344-34.035156 146.304688zm0 0"/><path d="m192.109375 124.820312c-6.578125-5.519531-16.382813-4.664062-21.898437 1.910157l-52.71875 62.804687c-4.851563 5.78125-4.851563 14.207032 0 19.988282l52.71875 62.804687c5.519531 6.578125 15.324218 7.429687 21.898437 1.910156 6.574219-5.515625 7.429687-15.320312 1.910156-21.894531l-44.332031-52.8125 44.332031-52.8125c5.519531-6.578125 4.664063-16.378906-1.910156-21.898438zm0 0"/><path d="m335.953125 126.730469c-5.519531-6.574219-15.324219-7.429688-21.898437-1.910157-6.574219 5.519532-7.429688 15.324219-1.910157 21.898438l44.328125 52.8125-44.328125 52.8125c-5.519531 6.574219-4.664062 16.378906 1.910157 21.894531 6.578124 5.523438 16.382812 4.660157 21.898437-1.910156l52.71875-62.804687c4.851563-5.78125 4.851563-14.207032 0-19.988282zm0 0"/><path d="m273.234375 121.675781c-8.3125-2.148437-16.789063 2.84375-18.941406 11.152344l-32.515625 125.609375c-2.152344 8.3125 2.839844 16.792969 11.152344 18.941406 8.3125 2.152344 16.789062-2.84375 18.941406-11.148437l32.515625-125.613281c2.152343-8.308594-2.84375-16.789063-11.152344-18.941407zm0 0"/></g><g transform="matrix(0.11718757450580597 0 0 0.11718757450580597 250 273.00000005859374)" id="L1_23"><path d="m503.898438 381.839844-191.191407-347.761719c-24.597656-44.769531-88.808593-44.773437-113.410156 0l-191.191406 347.761719c-23.742188 43.167968 7.527343 95.890625 56.703125 95.890625h382.386718c49.246094 0 80.410157-52.785157 56.703126-95.890625zm-56.703126 65.070312h-382.386718c-25.75 0-42.132813-27.621094-29.695313-50.222656l191.195313-347.765625c12.890625-23.453125 46.511718-23.429687 59.386718 0l191.195313 347.765625c12.425781 22.582031-3.925781 50.222656-29.695313 50.222656zm0 0"/><path d="m342.398438 268.980469h21.140624c8.511719 0 15.410157-6.898438 15.410157-15.410157 0-8.511718-6.898438-15.410156-15.410157-15.410156h-21.972656c0-.003906 0-.003906 0-.003906-3.304687-18.515625-16.210937-33.730469-33.359375-40.324219v-4.964843c0-10.25-2.96875-19.824219-8.101562-27.898438l10.765625-15.785156c4.796875-7.027344 2.988281-16.617188-4.042969-21.414063s-16.621094-2.988281-21.417969 4.042969l-8.90625 13.054688s0 0-.003906 0c-12.84375-5.511719-27.714844-5.699219-40.992188 0-.003906 0-.003906 0-.007812 0l-8.90625-13.054688c-4.796875-7.03125-14.382812-8.839844-21.414062-4.042969s-8.84375 14.382813-4.046876 21.414063l10.769532 15.785156c-5.136719 8.074219-8.105469 17.648438-8.105469 27.898438v4.964843c-17.148437 6.59375-30.050781 21.820313-33.359375 40.324219v.003906h-21.96875c-8.511719 0-15.414062 6.898438-15.414062 15.410156 0 8.511719 6.902343 15.410157 15.414062 15.410157h21.136719v15.871093h-21.136719c-8.511719 0-15.414062 6.898438-15.414062 15.410157s6.902343 15.410156 15.414062 15.410156h21.136719v15.871094h-21.136719c-8.511719 0-15.414062 6.902343-15.414062 15.410156 0 8.511719 6.902343 15.414063 15.414062 15.414063h24.433594c.003906 0 .003906.003906.003906.003906 10.3125 36.164062 43.652344 62.722656 83.097656 62.722656 39.441406 0 72.78125-26.558594 83.097656-62.722656v-.003906h24.4375c8.511719 0 15.410157-6.902344 15.410157-15.414063 0-8.507813-6.898438-15.410156-15.410157-15.410156h-21.140624v-15.867188h21.140624c8.511719 0 15.410157-6.902343 15.410157-15.414062 0-8.507813-6.898438-15.410157-15.410157-15.410157h-21.140624c0-5.914062 0-9.945312 0-15.871093zm-65.015626-76.113281v1.425781h-42.761718v-1.425781c0-11.796876 9.597656-21.378907 21.382812-21.378907 11.78125-.003906 21.378906 9.582031 21.378906 21.378907zm-54.503906 32.25h66.25c12.453125 0 22.449219 10.144531 22.449219 22.429687v15.605469h-111.148437c0-5.664063 0-10.125 0-15.59375 0-12.34375 10.039062-22.441406 22.449218-22.441406zm-22.449218 113.582031c0-6.070313 0-39.945313 0-44.722657h40.160156v98.128907c-23.167969-6.699219-40.160156-28.101563-40.160156-53.40625zm70.984374 53.40625v-98.128907h40.160157v44.722657c0 25.304687-16.992188 46.707031-40.160157 53.40625zm0 0"/></g></defs><g fi:class="KUsePattern"><pattern id="pattern_L1_6" width="350" height="350" patternUnits="userSpaceOnUse"><use xlink:href="#L1_6" x="-350" y="-350"/><use xlink:href="#L1_6" x="0" y="-350"/><use xlink:href="#L1_6" x="350" y="-350"/><use xlink:href="#L1_6" x="-350" y="0"/><use xlink:href="#L1_6" x="0" y="0"/><use xlink:href="#L1_6" x="350" y="0"/><use xlink:href="#L1_6" x="-350" y="350"/><use xlink:href="#L1_6" x="0" y="350"/><use xlink:href="#L1_6" x="350" y="350"/></pattern><rect x="0" y="0" width="100%" height="100%" fill="url(#pattern_L1_6)" opacity="0.5"/></g><g fi:class="KUsePattern"><pattern id="pattern_L1_12" width="350" height="350" patternUnits="userSpaceOnUse"><use xlink:href="#L1_12" x="-350" y="-350"/><use xlink:href="#L1_12" x="0" y="-350"/><use xlink:href="#L1_12" x="350" y="-350"/><use xlink:href="#L1_12" x="-350" y="0"/><use xlink:href="#L1_12" x="0" y="0"/><use xlink:href="#L1_12" x="350" y="0"/><use xlink:href="#L1_12" x="-350" y="350"/><use xlink:href="#L1_12" x="0" y="350"/><use xlink:href="#L1_12" x="350" y="350"/></pattern><rect x="0" y="0" width="100%" height="100%" fill="url(#pattern_L1_12)" opacity="0.5"/></g><g fi:class="KUsePattern"><pattern id="pattern_L1_15" width="350" height="350" patternUnits="userSpaceOnUse"><use xlink:href="#L1_15" x="-350" y="-350"/><use xlink:href="#L1_15" x="0" y="-350"/><use xlink:href="#L1_15" x="350" y="-350"/><use xlink:href="#L1_15" x="-350" y="0"/><use xlink:href="#L1_15" x="0" y="0"/><use xlink:href="#L1_15" x="350" y="0"/><use xlink:href="#L1_15" x="-350" y="350"/><use xlink:href="#L1_15" x="0" y="350"/><use xlink:href="#L1_15" x="350" y="350"/></pattern><rect x="0" y="0" width="100%" height="100%" fill="url(#pattern_L1_15)" opacity="0.5"/></g><g fi:class="KUsePattern"><pattern id="pattern_L1_23" width="350" height="350" patternUnits="userSpaceOnUse"><use xlink:href="#L1_23" x="-350" y="-350"/><use xlink:href="#L1_23" x="0" y="-350"/><use xlink:href="#L1_23" x="350" y="-350"/><use xlink:href="#L1_23" x="-350" y="0"/><use xlink:href="#L1_23" x="0" y="0"/><use xlink:href="#L1_23" x="350" y="0"/><use xlink:href="#L1_23" x="-350" y="350"/><use xlink:href="#L1_23" x="0" y="350"/><use xlink:href="#L1_23" x="350" y="350"/></pattern><rect x="0" y="0" width="100%" height="100%" fill="url(#pattern_L1_23)" opacity="0.5"/></g></svg>