<svg xmlns="http://www.w3.org/2000/svg" xmlns:xlink="http://www.w3.org/1999/xlink" xmlns:fi="http://pattern.flaticon.com/" x="0" y="0" width="200" height="200" viewBox="0 0 350 350"><rect x="0px" y="0px" width="100%" height="100%" opacity="1" fill="#fafafa"/><defs><g transform="matrix(0.1171875 0 0 0.1171875 80 244)" id="L1_6"><path d="m464.980469 0h-417.960938c-25.925781 0-47.019531 21.09375-47.019531 47.019531v242.511719c0 25.925781 21.09375 47.019531 47.019531 47.019531h155.703125l-4.695312 80.804688h-35.546875c-8.65625 0-15.671875 7.019531-15.671875 15.675781s7.015625 15.671875 15.671875 15.671875h187.039062c8.65625 0 15.671875-7.015625 15.671875-15.671875s-7.015625-15.675781-15.671875-15.675781h-35.546875l-4.695312-80.804688h155.703125c25.925781 0 47.019531-21.09375 47.019531-47.019531v-242.511719c0-25.925781-21.09375-47.019531-47.019531-47.019531zm-235.554688 417.355469 4.699219-80.800781h43.75l4.699219 80.800781zm251.226563-127.824219c0 8.640625-7.03125 15.671875-15.671875 15.671875h-417.960938c-8.640625 0-15.671875-7.03125-15.671875-15.671875v-242.511719c0-8.640625 7.03125-15.671875 15.671875-15.671875h417.960938c8.644531 0 15.671875 7.03125 15.671875 15.671875zm0 0"/><path d="m188.597656 87.703125c-6.628906-5.566406-16.515625-4.699219-22.082031 1.929687l-57.554687 68.566407c-4.890626 5.828125-4.890626 14.328125 0 20.152343l57.554687 68.570313c5.570313 6.632813 15.457031 7.492187 22.082031 1.925781 6.632813-5.5625 7.496094-15.449218 1.929688-22.078125l-49.097656-58.492187 49.097656-58.492188c5.5625-6.628906 4.699218-16.515625-1.929688-22.082031zm0 0"/><path d="m345.484375 89.632812c-5.566406-6.632812-15.453125-7.496093-22.082031-1.929687s-7.492188 15.453125-1.925782 22.082031l49.09375 58.492188-49.09375 58.492187c-5.566406 6.628907-4.703124 16.515625 1.925782 22.078125 6.632812 5.570313 16.519531 4.699219 22.082031-1.925781l57.554687-68.570313c4.890626-5.824218 4.890626-14.324218 0-20.152343zm0 0"/><path d="m288.941406 85.136719c-8.046875-3.191407-17.15625.75-20.34375 8.800781l-54.335937 137.132812c-3.1875 8.046876.75 17.15625 8.796875 20.347657 8.046875 3.1875 17.15625-.75 20.347656-8.800781l54.332031-137.136719c3.1875-8.046875-.75-17.15625-8.796875-20.34375zm0 0"/></g><g transform="matrix(0.1171875 0 0 0.1171875 243 133.99999967773442)" id="L1_12"><path d="m255.25.015625c-92.269531-1.230469-170.097656 74.550781-171.203125 166.914063-.726563 60.859374 31.535156 117.671874 84.199219 148.265624 11.097656 6.449219 17.992187 18.460938 17.992187 31.347657v65.125c0 16.382812 13.328125 29.710937 29.710938 29.710937h74.15625c16.378906 0 29.707031-13.328125 29.707031-29.710937 0-6.324219 0-58.5625 0-65.125 0-12.863281 6.980469-24.925781 18.21875-31.476563 50.390625-29.378906 83.988281-83.96875 83.988281-146.074218 0-92.441407-74.171875-167.78125-166.769531-168.976563zm33.667969 410.46875h-71.785157v-29.714844h71.785157zm33.554687-122.109375c-20.695312 12.066406-33.554687 34.355469-33.554687 58.167969v3.332031h-71.785157v-3.332031c0-23.855469-12.785156-46.101563-33.367187-58.058594-43.050781-25.007813-69.421875-71.445313-68.828125-121.183594.898438-75.023437 64.398438-137.347656 139.910156-136.394531 75.144532.972656 136.277344 62.914062 136.277344 138.085938 0 48.949218-26.304688 94.695312-68.652344 119.382812zm0 0"/><path d="m170.007812 165.378906 33.890626-47.375c4.964843-6.9375 3.363281-16.589844-3.574219-21.550781-6.941407-4.964844-16.589844-3.363281-21.554688 3.574219l-40.316406 56.363281c-3.847656 5.375-3.847656 12.601563 0 17.976563l40.316406 56.359374c4.964844 6.9375 14.613281 8.539063 21.554688 3.578126 6.9375-4.964844 8.539062-14.613282 3.574219-21.554688zm0 0"/><path d="m305.730469 96.453125c-6.9375 4.964844-8.539063 14.613281-3.574219 21.550781l33.890625 47.375-33.890625 47.371094c-4.964844 6.941406-3.363281 16.589844 3.574219 21.554688 6.9375 4.960937 16.589843 3.359374 21.550781-3.578126l40.320312-56.359374c3.84375-5.375 3.84375-12.601563 0-17.976563l-40.320312-56.363281c-4.964844-6.9375-14.613281-8.539063-21.550781-3.574219zm0 0"/><path d="m277 94.382812c-8.082031-2.730468-16.847656 1.609376-19.574219 9.691407l-38.066406 112.722656c-2.726563 8.082031 1.613281 16.847656 9.695313 19.578125 8.078124 2.730469 16.847656-1.609375 19.574218-9.695312l38.066406-112.722657c2.726563-8.082031-1.613281-16.847656-9.695312-19.574219zm0 0"/><path d="m496.550781 144.609375h-33.347656c-8.53125 0-15.449219 6.917969-15.449219 15.449219s6.917969 15.445312 15.449219 15.445312h33.347656c8.53125 0 15.449219-6.914062 15.449219-15.445312s-6.917969-15.449219-15.449219-15.449219zm0 0"/><path d="m450.628906 71.863281 33.351563-28.164062c6.515625-5.507813 7.335937-15.253907 1.832031-21.769531-5.503906-6.519532-15.25-7.339844-21.765625-1.835938l-33.351563 28.164062c-6.515624 5.503907-7.339843 15.25-1.835937 21.769532 5.503906 6.519531 15.25 7.339844 21.769531 1.835937zm0 0"/><path d="m483.980469 276.417969-33.351563-28.164063c-6.515625-5.507812-16.261718-4.683594-21.769531 1.835938-5.503906 6.515625-4.679687 16.261718 1.835937 21.765625l33.351563 28.167969c6.515625 5.503906 16.265625 4.679687 21.769531-1.835938 5.5-6.519531 4.679688-16.265625-1.835937-21.769531zm0 0"/><path d="m64.242188 160.058594c0-8.53125-6.914063-15.449219-15.445313-15.449219h-33.351563c-8.527343 0-15.445312 6.917969-15.445312 15.449219s6.917969 15.445312 15.449219 15.445312h33.347656c8.53125 0 15.445313-6.914062 15.445313-15.445312zm0 0"/><path d="m61.371094 248.253906-33.351563 28.164063c-6.515625 5.503906-7.335937 15.25-1.832031 21.765625 5.503906 6.519531 15.25 7.339844 21.765625 1.835937l33.351563-28.164062c6.515624-5.503907 7.339843-15.25 1.835937-21.769531-5.503906-6.515626-15.25-7.335938-21.769531-1.832032zm0 0"/><path d="m28.019531 43.699219 33.351563 28.164062c6.515625 5.503907 16.265625 4.683594 21.769531-1.835937 5.503906-6.519532 4.679687-16.265625-1.835937-21.769532l-33.351563-28.164062c-6.515625-5.503906-16.261719-4.683594-21.769531 1.835938-5.5 6.515624-4.679688 16.261718 1.835937 21.769531zm0 0"/></g><g transform="matrix(0.11718722432851791 0 0 0.11718722432851791 75.99999997070313 23)" id="L1_15"><path d="m475.488281 148.21875c-26.800781-130.359375-165.683593-173.324219-283.585937-134.433594-91.878906 30.296875-149.375 114.054688-146.480469 213.382813.042969 1.5-.265625 2.980469-.898437 4.308593l-39.339844 68.785157c-13.40625 22.460937.558594 50.722656 26.285156 54.378906l13.203125 1.878906c11.628906 95.445313 18.042969 114.144531 33.726563 128.300781 9.871093 8.90625 28.824218 10.019532 56.339843 3.3125 17.921875-4.367187 36.703125-11.546874 53.546875-20.347656 2.453125 7.234375 5.292969 17.527344 7.71875 31.359375 1.304688 7.433594 7.761719 12.855469 15.3125 12.855469h207.035156c10.78125 0 18.304688-10.738281 14.597657-20.878906-11.40625-31.199219-24.847657-77.546875-24.105469-121.195313.328125-19.25 10.996094-31.691406 25.757812-48.910156 27.816407-32.441406 61.390626-73.066406 40.886719-172.796875zm-64.484375 152.5625c-16.089844 18.761719-32.726562 38.164062-33.242187 68.613281-.667969 39.214844 8.71875 79.667969 18.851562 111.519531h-172.53125c-6.511719-29.414062-14.472656-42.238281-15.464843-43.765624-4.652344-7.125-14.171876-9.183594-21.355469-4.617188-31.847657 20.253906-67.878907 28.746094-83.269531 28.925781-3.78125.042969-7.304688-1.957031-9.136719-5.265625-5.277344-9.511718-10.738281-32.511718-19.632813-105.980468-1.503906-12.429688-11.207031-22.339844-23.59375-24.101563l-15.78125-2.246094c-3.140625-.445312-6.3125-3.578125-3.761718-8.027343.28125-.488282 39.726562-69.4375 39.980468-69.9375 3.097656-6.035157 4.628906-12.828126 4.429688-19.636719-2.484375-85.253907 46.632812-157.070313 125.140625-182.957031 95.726562-31.574219 219.871093-3.285157 243.402343 111.171874 17.679688 85.992188-8.609374 116.652344-34.035156 146.304688zm0 0"/><path d="m192.109375 124.820312c-6.578125-5.519531-16.382813-4.664062-21.898437 1.910157l-52.71875 62.804687c-4.851563 5.78125-4.851563 14.207032 0 19.988282l52.71875 62.804687c5.519531 6.578125 15.324218 7.429687 21.898437 1.910156 6.574219-5.515625 7.429687-15.320312 1.910156-21.894531l-44.332031-52.8125 44.332031-52.8125c5.519531-6.578125 4.664063-16.378906-1.910156-21.898438zm0 0"/><path d="m335.953125 126.730469c-5.519531-6.574219-15.324219-7.429688-21.898437-1.910157-6.574219 5.519532-7.429688 15.324219-1.910157 21.898438l44.328125 52.8125-44.328125 52.8125c-5.519531 6.574219-4.664062 16.378906 1.910157 21.894531 6.578124 5.523438 16.382812 4.660157 21.898437-1.910156l52.71875-62.804687c4.851563-5.78125 4.851563-14.207032 0-19.988282zm0 0"/><path d="m273.234375 121.675781c-8.3125-2.148437-16.789063 2.84375-18.941406 11.152344l-32.515625 125.609375c-2.152344 8.3125 2.839844 16.792969 11.152344 18.941406 8.3125 2.152344 16.789062-2.84375 18.941406-11.148437l32.515625-125.613281c2.152343-8.308594-2.84375-16.789063-11.152344-18.941407zm0 0"/></g><g transform="matrix(0.1171872690320015 0 0 0.1171872690320015 247 24)" id="L1_25"><path d="m52.800781 68.785156v374.429688c0 8.523437 6.910157 15.429687 15.429688 15.429687h375.539062c8.519531 0 15.429688-6.90625 15.429688-15.429687 0-6.914063 0-366.417969 0-374.429688 0-8.523437-6.90625-15.429687-15.429688-15.429687-21.28125 0-362.167969 0-375.539062 0-8.519531 0-15.429688 6.90625-15.429688 15.429687zm375.539063 15.429688v41.128906h-191.804688l-10.539062-41.128906zm-344.679688 0h110.480469l15.472656 60.390625c1.75 6.824219 7.902344 11.601562 14.949219 11.601562h203.777344v271.578125h-344.679688zm0 0"/><path d="m370.789062 298.285156h-8.613281c-20.550781 0-37.273437 16.71875-37.273437 37.273438v40.929687c0 20.550781 16.722656 37.273438 37.273437 37.273438h8.613281c20.554688 0 37.277344-16.722657 37.277344-37.273438v-40.929687c0-20.554688-16.722656-37.273438-37.277344-37.273438zm6.414063 78.203125c0 3.535157-2.875 6.414063-6.414063 6.414063h-8.613281c-3.535156 0-6.414062-2.878906-6.414062-6.414063v-40.929687c0-3.535156 2.878906-6.414063 6.414062-6.414063h8.613281c3.539063 0 6.414063 2.878907 6.414063 6.414063zm0 0"/><path d="m351.054688 218.859375v46.4375c0 8.523437 6.90625 15.433594 15.429687 15.433594 8.519531 0 15.429687-6.910157 15.429687-15.433594v-73.007813c0-11.835937-12.808593-19.261718-23.078124-13.402343l-24.210938 13.816406c-7.402344 4.222656-9.976562 13.644531-5.75 21.046875 3.734375 6.550781 12.421875 10.671875 22.179688 5.109375zm0 0"/><path d="m155.632812 298.285156h-8.613281c-20.554687 0-37.273437 16.71875-37.273437 37.273438v40.929687c0 20.550781 16.71875 37.273438 37.273437 37.273438h8.613281c20.550782 0 37.273438-16.722657 37.273438-37.273438v-40.929687c0-20.554688-16.722656-37.273438-37.273438-37.273438zm6.414063 78.203125c0 3.535157-2.878906 6.414063-6.414063 6.414063h-8.613281c-3.539062 0-6.414062-2.878906-6.414062-6.414063v-40.929687c0-3.535156 2.875-6.414063 6.414062-6.414063h8.613281c3.535157 0 6.414063 2.878907 6.414063 6.414063zm0 0"/><path d="m151.324219 280.726562c8.523437 0 15.429687-6.90625 15.429687-15.429687v-73.011719c0-11.832031-12.808594-19.257812-23.074218-13.398437l-24.210938 13.816406c-7.402344 4.222656-9.980469 13.644531-5.757812 21.046875 4.226562 7.402344 13.648437 9.976562 21.050781 5.753906l1.132812-.644531v46.4375c0 8.523437 6.910157 15.429687 15.429688 15.429687zm0 0"/><path d="m250.394531 300.84375-24.210937 16.011719c-7.109375 4.703125-9.058594 14.273437-4.359375 21.382812 4.699219 7.105469 14.273437 9.054688 21.382812 4.359375l.265625-.179687v55.914062c0 8.519531 6.910156 15.429688 15.433594 15.429688 8.519531 0 15.429688-6.910157 15.429688-15.429688v-84.617187c0-12.289063-13.707032-19.640625-23.941407-12.871094zm0 0"/><path d="m265.214844 176.855469h-12.621094c-19.449219 0-35.269531 15.824219-35.269531 35.273437v33.328125c0 19.449219 15.820312 35.269531 35.269531 35.269531h12.621094c19.449218 0 35.269531-15.820312 35.269531-35.269531v-33.328125c0-19.449218-15.820313-35.273437-35.269531-35.273437zm4.410156 68.601562c0 2.429688-1.980469 4.410157-4.414062 4.410157h-12.617188c-2.433594 0-4.410156-1.980469-4.410156-4.410157v-33.328125c0-2.433594 1.976562-4.414062 4.410156-4.414062h12.617188c2.433593 0 4.414062 1.980468 4.414062 4.414062zm0 0"/><path d="m496.570312 0h-58.941406c-8.523437 0-15.433594 6.90625-15.433594 15.429688 0 8.523437 6.910157 15.429687 15.433594 15.429687h43.511719v43.515625c0 8.519531 6.910156 15.429688 15.429687 15.429688 8.523438 0 15.429688-6.910157 15.429688-15.429688v-58.945312c0-8.523438-6.910156-15.429688-15.429688-15.429688zm0 0"/><path d="m74.375 481.140625h-43.515625v-43.515625c0-8.519531-6.90625-15.429688-15.429687-15.429688-8.519532 0-15.429688 6.910157-15.429688 15.429688v58.945312c0 8.523438 6.910156 15.429688 15.429688 15.429688h58.945312c8.519531 0 15.429688-6.90625 15.429688-15.429688 0-8.523437-6.910157-15.429687-15.429688-15.429687zm0 0"/><path d="m496.570312 422.195312c-8.519531 0-15.429687 6.910157-15.429687 15.429688v43.515625h-43.515625c-8.519531 0-15.429688 6.90625-15.429688 15.429687 0 8.523438 6.910157 15.429688 15.429688 15.429688h58.945312c8.519532 0 15.429688-6.90625 15.429688-15.429688v-58.941406c0-8.523437-6.910156-15.433594-15.429688-15.433594zm0 0"/><path d="m15.429688 89.804688c8.523437 0 15.429687-6.910157 15.429687-15.429688v-43.515625h43.515625c8.519531 0 15.429688-6.90625 15.429688-15.429687 0-8.519532-6.910157-15.429688-15.429688-15.429688h-58.945312c-8.519532 0-15.429688 6.90625-15.429688 15.429688v58.945312c0 8.519531 6.910156 15.429688 15.429688 15.429688zm0 0"/><path d="m127.113281 137.449219h31.039063c8.523437 0 15.433594-6.910157 15.433594-15.429688 0-8.523437-6.910157-15.433593-15.433594-15.433593h-31.039063c-8.519531 0-15.429687 6.910156-15.429687 15.433593 0 8.519531 6.910156 15.429688 15.429687 15.429688zm0 0"/></g><g transform="matrix(0.11718755960464478 0 0 0.11718755960464478 85 131)" id="L1_26"><path d="m418.527344 61.820312c-1.273438-.171874-127.230469-18.210937-180.101563-50.777343l-14.207031-8.757813c-4.960938-3.046875-11.199219-3.046875-16.15625 0l-14.21875 8.757813c-52.808594 32.539062-178.820312 50.605469-180.09375 50.777343-7.59375 1.078126-13.25 7.578126-13.25 15.246094v213.433594c0 121.726562 95.785156 221.5 215.640625 221.5 119.582031 0 215.640625-99.464844 215.640625-221.5v-213.433594c0-7.667968-5.65625-14.175781-13.253906-15.246094zm-17.542969 228.679688c0 105.492188-82.753906 190.707031-184.84375 190.707031-101.917969 0-184.847656-85.558593-184.847656-190.707031v-200.226562c35.199219-5.734376 130.691406-23.433594 178.710937-53.015626l6.136719-3.777343 6.136719 3.777343c48.019531 29.582032 143.511718 47.269532 178.707031 53.015626zm0 0"/><path d="m190.222656 102.671875-12.289062-18.011719c-4.792969-7.027344-14.375-8.835937-21.398438-4.042968-7.023437 4.792968-8.832031 14.371093-4.039062 21.398437l14.230468 20.859375s0 0-.003906 0c-6.578125 9.621094-10.4375 21.238281-10.4375 33.75v8.253906c-21.542968 7.402344-37.691406 26.523438-40.78125 49.714844h-29.328125c-8.503906 0-15.394531 6.890625-15.394531 15.394531 0 8.503907 6.890625 15.398438 15.394531 15.398438h28.785157v25.636719h-28.785157c-8.503906 0-15.394531 6.894531-15.394531 15.398437 0 8.5 6.890625 15.394531 15.394531 15.394531h28.785157v25.636719h-28.785157c-8.503906 0-15.394531 6.894531-15.394531 15.398437 0 8.503907 6.890625 15.398438 15.394531 15.398438h32.007813c11.28125 43.550781 50.921875 75.8125 97.957031 75.8125 47.03125 0 86.671875-32.261719 97.953125-75.8125h32.007812c8.503907 0 15.398438-6.894531 15.398438-15.398438 0-8.503906-6.894531-15.398437-15.398438-15.398437h-28.78125v-25.636719h28.78125c8.503907 0 15.398438-6.894531 15.398438-15.394531 0-8.503906-6.894531-15.398437-15.398438-15.398437h-28.78125c0-4.039063 0-12.601563 0-25.636719h28.78125c8.503907 0 15.398438-6.894531 15.398438-15.398438 0-8.503906-6.894531-15.394531-15.398438-15.394531h-29.328124c-3.089844-23.199219-19.234376-42.3125-40.78125-49.714844v-8.253906c0-12.511719-3.859376-24.128906-10.4375-33.75 0 0 0 0-.003907 0l14.234375-20.859375c4.792969-7.023437 2.984375-16.605469-4.042968-21.398437-7.023438-4.792969-16.601563-2.984376-21.394532 4.042968l-12.292968 18.011719c-16.285157-7.855469-35.414063-7.914063-51.832032 0zm54.976563 53.953125v4.957031h-58.117188v-4.957031c0-16.03125 13.035157-29.070312 29.058594-29.070312s29.058594 13.039062 29.058594 29.070312zm-99.445313 176.246094v-57.277344h54.988282v125.96875c-31.429688-7.03125-54.988282-35.15625-54.988282-68.691406zm140.769532 0c0 33.535156-23.554688 61.660156-54.984376 68.691406v-125.96875h54.984376zm0-110.160156v22.089843h-140.769532v-22.082031c0-16.777344 13.675782-30.339844 30.355469-30.339844h80.0625c16.679687 0 30.351563 13.566406 30.351563 30.332032zm0 0"/></g><g transform="matrix(0.11718758940696716 0 0 0.11718758940696716 246 243.99999992675782)" id="L1_29"><path d="m309.773438 7.359375-34.4375-6.070313c-27.96875-4.9375-54.738282 13.808594-59.671876 41.78125-.914062 5.191407-57.640624 326.902344-58.421874 331.34375-.40625 2.289063-.238282 4.816407.324218 6.855469l33.113282 119.800781c3.472656 12.558594 20.066406 15.617188 27.710937 4.882813l72.035156-101.175781c1.316407-1.820313 2.304688-4.136719 2.707031-6.40625l58.421876-331.339844c4.945312-28.035156-13.742188-54.730469-41.78125-59.671875zm-119.140626 357.121094c1.226563-6.960938 42.109376-238.824219 44.378907-251.679688l21.914062 3.863281-44.378906 251.679688zm21.359376 96.734375-17.820313-64.46875c20.257813 3.570312 36.363281 6.410156 56.617187 9.980468zm53.15625-83.59375-21.914063-3.867188 44.378906-251.675781 21.914063 3.863281c-2.148438 12.195313-42.382813 240.382813-44.378906 251.679688zm55.71875-316-5.929688 33.632812c-11.59375-2.042968-62.738281-11.0625-74.515625-13.140625l5.929687-33.632812c1.949219-11.050781 12.523438-18.453125 23.574219-16.507813l34.4375 6.074219c11.074219 1.953125 18.460938 12.496094 16.503907 23.574219zm0 0"/><path d="m506.96875 235.894531-48.539062-91.558593c-11.699219-22.074219-39.117188-29.152344-59.78125-17.214844-19.199219 11.09375-27.910157 36.199218-16.53125 57.667968l37.808593 71.332032-37.808593 71.332031c-12.054688 22.742187-2.714844 43.839844 13.546874 55.125 19.226563 13.335937 48.125 12.953125 62.769532-14.671875l48.535156-91.558594c6.707031-12.652344 6.710938-27.773437 0-40.453125zm-27.4375 25.914063-48.53125 91.554687c-3.425781 6.457031-11.59375 8.257813-17.265625 4.582031-4.863281-3.15625-7.40625-9.859374-4.183594-15.945312l41.664063-78.605469c2.410156-4.546875 2.410156-9.996093 0-14.542969l-41.664063-78.601562c-3.082031-5.816406-.90625-12.21875 3.601563-15.542969 5.652344-4.171875 14.28125-2.542969 17.84375 4.175781l48.53125 91.546876c1.890625 3.566406 1.890625 7.824218.003906 11.378906zm0 0"/><path d="m113.351562 127.125c-20.664062-11.941406-48.082031-4.859375-59.785156 17.210938l-48.535156 91.558593c-6.710938 12.679688-6.707031 27.800781 0 40.457031l48.535156 91.558594c11.800782 22.257813 38.445313 28.457032 58.328125 18.027344 20.074219-10.523438 29.710938-36.371094 17.988281-58.480469l-37.808593-71.332031 37.808593-71.332031c11.378907-21.472657 2.667969-46.578125-16.53125-57.667969zm-10.90625 43.121094-41.660156 78.605468c-2.410156 4.546876-2.410156 9.996094 0 14.542969l41.660156 78.605469c3.226563 6.082031.683594 12.789062-4.179687 15.945312-5.671875 3.675782-13.84375 1.875-17.265625-4.582031l-48.535156-91.554687c-1.882813-3.558594-1.882813-7.8125.007812-11.382813l48.53125-91.546875c3.558594-6.714844 12.191406-8.34375 17.84375-4.175781 4.503906 3.328125 6.683594 9.730469 3.597656 15.542969zm0 0"/></g></defs><g fi:class="KUsePattern"><pattern id="pattern_L1_6" width="350" height="350" patternUnits="userSpaceOnUse"><use xlink:href="#L1_6" x="-350" y="-350"/><use xlink:href="#L1_6" x="0" y="-350"/><use xlink:href="#L1_6" x="350" y="-350"/><use xlink:href="#L1_6" x="-350" y="0"/><use xlink:href="#L1_6" x="0" y="0"/><use xlink:href="#L1_6" x="350" y="0"/><use xlink:href="#L1_6" x="-350" y="350"/><use xlink:href="#L1_6" x="0" y="350"/><use xlink:href="#L1_6" x="350" y="350"/></pattern><rect x="0" y="0" width="100%" height="100%" fill="url(#pattern_L1_6)" opacity="0.5" /></g><g fi:class="KUsePattern"><pattern id="pattern_L1_12" width="350" height="350" patternUnits="userSpaceOnUse"><use xlink:href="#L1_12" x="-350" y="-350"/><use xlink:href="#L1_12" x="0" y="-350"/><use xlink:href="#L1_12" x="350" y="-350"/><use xlink:href="#L1_12" x="-350" y="0"/><use xlink:href="#L1_12" x="0" y="0"/><use xlink:href="#L1_12" x="350" y="0"/><use xlink:href="#L1_12" x="-350" y="350"/><use xlink:href="#L1_12" x="0" y="350"/><use xlink:href="#L1_12" x="350" y="350"/></pattern><rect x="0" y="0" width="100%" height="100%" fill="url(#pattern_L1_12)" opacity="0.5"/></g><g fi:class="KUsePattern"><pattern id="pattern_L1_15" width="350" height="350" patternUnits="userSpaceOnUse"><use xlink:href="#L1_15" x="-350" y="-350"/><use xlink:href="#L1_15" x="0" y="-350"/><use xlink:href="#L1_15" x="350" y="-350"/><use xlink:href="#L1_15" x="-350" y="0"/><use xlink:href="#L1_15" x="0" y="0"/><use xlink:href="#L1_15" x="350" y="0"/><use xlink:href="#L1_15" x="-350" y="350"/><use xlink:href="#L1_15" x="0" y="350"/><use xlink:href="#L1_15" x="350" y="350"/></pattern><rect x="0" y="0" width="100%" height="100%" fill="url(#pattern_L1_15)" opacity="0.5"/></g><g fi:class="KUsePattern"><pattern id="pattern_L1_25" width="350" height="350" patternUnits="userSpaceOnUse"><use xlink:href="#L1_25" x="-350" y="-350"/><use xlink:href="#L1_25" x="0" y="-350"/><use xlink:href="#L1_25" x="350" y="-350"/><use xlink:href="#L1_25" x="-350" y="0"/><use xlink:href="#L1_25" x="0" y="0"/><use xlink:href="#L1_25" x="350" y="0"/><use xlink:href="#L1_25" x="-350" y="350"/><use xlink:href="#L1_25" x="0" y="350"/><use xlink:href="#L1_25" x="350" y="350"/></pattern><rect x="0" y="0" width="100%" height="100%" fill="url(#pattern_L1_25)" opacity="0.5"/></g><g fi:class="KUsePattern"><pattern id="pattern_L1_26" width="350" height="350" patternUnits="userSpaceOnUse"><use xlink:href="#L1_26" x="-350" y="-350"/><use xlink:href="#L1_26" x="0" y="-350"/><use xlink:href="#L1_26" x="350" y="-350"/><use xlink:href="#L1_26" x="-350" y="0"/><use xlink:href="#L1_26" x="0" y="0"/><use xlink:href="#L1_26" x="350" y="0"/><use xlink:href="#L1_26" x="-350" y="350"/><use xlink:href="#L1_26" x="0" y="350"/><use xlink:href="#L1_26" x="350" y="350"/></pattern><rect x="0" y="0" width="100%" height="100%" fill="url(#pattern_L1_26)" opacity="0.5"/></g><g fi:class="KUsePattern"><pattern id="pattern_L1_29" width="350" height="350" patternUnits="userSpaceOnUse"><use xlink:href="#L1_29" x="-350" y="-350"/><use xlink:href="#L1_29" x="0" y="-350"/><use xlink:href="#L1_29" x="350" y="-350"/><use xlink:href="#L1_29" x="-350" y="0"/><use xlink:href="#L1_29" x="0" y="0"/><use xlink:href="#L1_29" x="350" y="0"/><use xlink:href="#L1_29" x="-350" y="350"/><use xlink:href="#L1_29" x="0" y="350"/><use xlink:href="#L1_29" x="350" y="350"/></pattern><rect x="0" y="0" width="100%" height="100%" fill="url(#pattern_L1_29)" opacity="0.5"/></g></svg>